FFmpeg version SVN-r25716, Copyright (c) 2000-2010 the FFmpeg developers  built on Nov 10 2010 12:23:18 with gcc 4.1.2 20080704 (Red Hat 4.1.2-48)  configuration: --enable-libmp3lame --enable-shared --disable-mmx --arch=x86_64  libavutil     50.33. 0 / 50.33. 0  libavcore      0.12. 1 /  0.12. 1  libavcodec    52.94. 4 / 52.94. 4  libavformat   52.84. 0 / 52.84. 0  libavdevice   52. 2. 2 / 52. 2. 2  libavfilter    1.59. 0 /  1.59. 0  libswscale     0.12. 0 /  0.12. 0[mpegvideo @ 0xafed4c0] Estimating duration from bitrate, this may be inaccurateInput #0, mpegvideo, from '/RAID10/data/converted_video_files/31941.mpeg':  Duration: 00:00:00.08, bitrate: 104856 kb/s    Stream #0.0: Video: mpeg1video, yuv420p, 512x512 [PAR 1:1 DAR 1:1], 104857 kb/s, 25 fps, 25 tbr, 1200k tbn, 25 tbc[buffer @ 0xafef8b0] w:512 h:512 pixfmt:yuv420pOutput #0, flv, to '/RAID10/data/converted_video_files/31941.flv':  Metadata:    encoder         : Lavf52.84.0    Stream #0.0: Video: flv, yuv420p, 512x512 [PAR 1:1 DAR 1:1], q=2-31, 600 kb/s, 1k tbn, 24 tbcStream mapping:  Stream #0.0 -> #0.0Press [q] to stop encodingframe=   18 fps=  0 q=16.9 size=     297kB time=0.79 bitrate=3071.7kbits/s dup=0 drop=1    frame=   42 fps=  0 q=21.7 Lsize=     356kB time=1.79 bitrate=1627.6kbits/s dup=0 drop=2    video:355kB audio:0kB global headers:0kB muxing overhead 0.242514%